<?xml version="1.0" encoding="utf-8"?>
<!-- Generator: Adobe Illustrator 25.2.0, SVG Export Plug-In . SVG Version: 6.00 Build 0)  -->
<svg version="1.1" id="Ebene_1" xmlns="http://www.w3.org/2000/svg" xmlns:xlink="http://www.w3.org/1999/xlink" x="0px" y="0px"
	 viewBox="0 0 1080 1240" style="enable-background:new 0 0 1080 1240;" xml:space="preserve">
<style type="text/css">
	.st0{fill:#19191B;}
	.st1{fill:#2A222D;}
	.st2{fill:#393239;}
	.st3{fill:#FA7CFF;}
	.st4{fill:#DB15FF;}
	.st5{fill:#2D2B2C;}
</style>
<g>
	<polygon class="st0" points="1035,322.4 990,347.2 945,372 900,396.8 855,421.6 810,446.4 765,471.2 720,496 675,520.8 630,545.6 
		585,570.4 540,595.2 540,644.8 540,694.4 540,744 540,793.6 540,843.2 540,892.8 540,942.4 540,992 540,1041.6 540,1091.2 
		540,1140.8 540,1190.4 540,1240 585,1215.2 630,1190.4 675,1165.6 720,1140.8 765,1116 810,1091.2 855,1066.4 900,1041.6 
		945,1016.8 990,992 1035,967.2 1080,942.4 1080,793.6 1035,818.4 990,843.2 945,868 900,892.8 855,917.6 810,942.4 765,967.2 
		720,992 675,1016.8 675,967.2 675,917.6 720,892.8 765,868 810,843.2 855,818.4 900,793.6 945,768.8 990,744 1035,719.2 
		1080,694.4 1080,545.6 1035,570.4 990,595.2 945,620 900,644.8 855,669.6 810,694.4 765,719.2 720,744 675,768.8 675,719.2 
		675,669.6 720,644.8 765,620 810,595.2 855,570.4 900,545.6 945,520.8 990,496 1035,471.2 1080,446.4 1080,297.6 	"/>
	<polygon class="st1" points="0,347.2 0,396.8 0,446.4 0,496 0,545.6 0,595.2 0,644.8 0,694.4 0,744 0,793.6 0,843.2 0,892.8 
		0,942.4 45,967.2 90,992 135,1016.8 180,1041.6 225,1066.4 270,1091.2 315,1116 360,1140.8 405,1165.6 450,1190.4 495,1215.2 
		540,1240 540,1190.4 540,1140.8 540,1091.2 540,1041.6 540,992 540,942.4 540,892.8 540,843.2 540,793.6 540,744 540,694.4 
		540,644.8 540,595.2 495,570.4 450,545.6 405,520.8 360,496 315,471.2 270,446.4 225,421.6 180,396.8 135,372 90,347.2 45,322.4 
		0,297.6 	"/>
	<polygon class="st2" points="540,0 495,24.8 450,49.6 405,74.4 360,99.2 315,124 270,148.8 225,173.6 180,198.4 135,223.2 90,248 
		45,272.8 0,297.6 45,322.4 90,347.2 135,372 180,396.8 225,421.6 270,446.4 315,471.2 360,496 405,520.8 450,545.6 495,570.4 
		540,595.2 585,570.4 630,545.6 675,520.8 720,496 765,471.2 810,446.4 855,421.6 900,396.8 945,372 990,347.2 1035,322.4 
		1080,297.6 1035,272.8 990,248 945,223.2 900,198.4 855,173.6 810,148.8 765,124 720,99.2 675,74.4 630,49.6 585,24.8 	"/>
	<polygon class="st3" points="990,793.6 1035,818.4 1080,793.6 1035,768.8 	"/>
	<polygon class="st3" points="990,843.2 945,818.4 990,793.6 1035,818.4 	"/>
	<polygon class="st4" points="945,868 900,843.2 945,818.4 990,843.2 	"/>
	<polygon class="st4" points="900,892.8 855,868 900,843.2 945,868 	"/>
	<polygon class="st3" points="855,917.6 810,892.8 855,868 900,892.8 	"/>
	<polygon class="st4" points="810,942.4 765,917.6 810,892.8 855,917.6 	"/>
	<polygon class="st3" points="765,967.2 720,942.4 765,917.6 810,942.4 	"/>
	<polygon class="st4" points="720,992 675,967.2 720,942.4 765,967.2 	"/>
	<polygon class="st4" points="720,942.4 675,917.6 720,892.8 765,917.6 	"/>
	<polygon class="st4" points="765,917.6 720,892.8 765,868 810,892.8 	"/>
	<polygon class="st4" points="990,793.6 945,768.8 990,744 1035,768.8 	"/>
	<polygon class="st4" points="945,818.4 900,793.6 945,768.8 990,793.6 	"/>
	<polygon class="st3" points="900,843.2 855,818.4 900,793.6 945,818.4 	"/>
	<polygon class="st4" points="855,868 810,843.2 855,818.4 900,843.2 	"/>
	<polygon class="st3" points="810,892.8 765,868 810,843.2 855,868 	"/>
	<polygon class="st4" points="990,545.6 1035,570.4 1080,545.6 1035,520.8 	"/>
	<polygon class="st3" points="990,595.2 945,570.4 990,545.6 1035,570.4 	"/>
	<polygon class="st4" points="945,620 900,595.2 945,570.4 990,595.2 	"/>
	<polygon class="st4" points="900,644.8 855,620 900,595.2 945,620 	"/>
	<polygon class="st3" points="855,669.6 810,644.8 855,620 900,644.8 	"/>
	<polygon class="st3" points="990,545.6 945,520.8 990,496 1035,520.8 	"/>
	<polygon class="st4" points="945,570.4 900,545.6 945,520.8 990,545.6 	"/>
	<polygon class="st3" points="900,595.2 855,570.4 900,545.6 945,570.4 	"/>
	<polygon class="st4" points="855,620 810,595.2 855,570.4 900,595.2 	"/>
	<polygon class="st4" points="810,644.8 765,620 810,595.2 855,620 	"/>
	<polygon class="st3" points="810,694.4 765,669.6 810,644.8 855,669.6 	"/>
	<polygon class="st4" points="765,719.2 720,694.4 765,669.6 810,694.4 	"/>
	<polygon class="st3" points="765,669.6 720,644.8 765,620 810,644.8 	"/>
	<polygon class="st4" points="720,694.4 675,669.6 720,644.8 765,669.6 	"/>
	<polygon class="st3" points="720,744 675,719.2 720,694.4 765,719.2 	"/>
	<polygon class="st3" points="675,768.8 675,719.2 720,744 	"/>
	<polygon class="st4" points="675,719.2 675,669.6 720,694.4 	"/>
	<polygon class="st3" points="675,967.2 675,917.6 720,942.4 	"/>
	<polygon class="st4" points="675,1016.8 675,967.2 720,992 	"/>
	<path class="st0" d="M405,967.2v49.6v49.6l-45-24.8l-45-24.8L270,992v49.6v49.6l45,24.8l45,24.8l45,24.8l45,24.8l45,24.8v-49.6
		V1116v-49.6v-49.6v-49.6l-45-24.8l-45-24.8V967.2z M0,843.2v49.6v49.6l45,24.8L90,992l45,24.8v-49.6v-49.6V868l-45-24.8l-45-24.8
		L0,793.6V843.2z M270,793.6l-45-24.8L180,744v49.6v49.6l45,24.8l45,24.8l45,24.8l45,24.8v-49.6v-49.6v-49.6l-45-24.8L270,744V793.6
		z M495,620v49.6v49.6v49.6l45,24.8V744v-49.6v-49.6v-49.6l-45-24.8V620z M90,595.2v49.6v49.6l45,24.8v-49.6V620v-49.6l-45-24.8
		V595.2z M225,471.2v49.6v49.6l45,24.8v49.6v49.6l45,24.8l45,24.8l45,24.8v-49.6v-49.6V620v-49.6v-49.6L360,496l-45-24.8l-45-24.8
		l-45-24.8V471.2z M0,347.2v49.6v49.6V496l45,24.8l45,24.8V496v-49.6v-49.6v-49.6l-45-24.8L0,297.6V347.2z"/>
	<path class="st5" d="M630,396.8l-45,24.8l-45,24.8l45,24.8l45,24.8l45,24.8l45-24.8l45-24.8l45-24.8l-45-24.8l-45-24.8L675,372
		L630,396.8z M270,297.6l-45,24.8l-45,24.8L135,372l45,24.8l45,24.8l45,24.8l45-24.8l45,24.8l45,24.8l45-24.8l45-24.8l45-24.8
		L495,372l-45-24.8l-45-24.8l-45-24.8l-45-24.8L270,297.6z M450,248l-45,24.8l45,24.8l45,24.8l45,24.8l45-24.8l45-24.8l-45-24.8
		L540,248l-45-24.8L450,248z M675,223.2L630,248l45,24.8l45,24.8l45-24.8l45-24.8l-45-24.8l-45-24.8L675,223.2z M855,223.2L810,248
		l45,24.8l45,24.8l-45,24.8l-45,24.8l45,24.8l45,24.8l45-24.8l45-24.8l45-24.8l45-24.8l-45-24.8L990,248l-45-24.8l-45-24.8
		L855,223.2z M180,198.4l-45,24.8L90,248l45,24.8l45-24.8l45-24.8l45-24.8l-45-24.8L180,198.4z M540,49.6l-45,24.8l-45,24.8L405,124
		l-45,24.8l45,24.8l45,24.8l45-24.8l45-24.8l45-24.8l45-24.8l45-24.8l-45-24.8l-45-24.8L540,49.6z"/>
</g>
</svg>
